 <svg  version="1.0" xmlns="http://www.w3.org/2000/svg"  width="900.000000pt" height="216.000000pt" viewBox="0 0 900.000000 216.000000"  preserveAspectRatio="xMidYMid meet">  <g transform="translate(0.000000,216.000000) scale(0.100000,-0.100000)" fill="#ffffff" stroke="none"> <path d="M437 2075 c-9 -20 -17 -54 -17 -76 0 -22 -7 -56 -15 -76 -8 -19 -15 -55 -15 -80 0 -24 -7 -60 -15 -80 -8 -19 -15 -53 -15 -75 0 -21 -7 -55 -15 -75 -8 -19 -15 -53 -15 -75 0 -21 -7 -55 -15 -75 -8 -19 -15 -51 -15 -70 0 -18 -7 -50 -15 -70 -8 -19 -15 -53 -15 -75 0 -21 -7 -55 -15 -75 -8 -19 -15 -53 -15 -75 0 -21 -7 -55 -15 -75 -8 -19 -15 -56 -15 -82 -1 -25 -7 -57 -15 -71 -8 -14 -15 -47 -15 -75 0 -27 -7 -61 -15 -75 -8 -14 -15 -47 -15 -75 0 -27 -7 -61 -15 -75 -8 -14 -14 -44 -15 -68 0 -23 -7 -59 -15 -79 -8 -19 -15 -53 -15 -74 0 -21 -6 -56 -14 -76 -8 -21 -17 -69 -19 -108 -3 -38 -6 -77 -8 -85 -3 -13 13 -15 101 -15 99 0 105 1 106 20 1 12 6 30 13 42 6 12 11 40 11 63 0 22 7 57 15 77 8 19 15 55 15 80 0 24 7 60 15 80 8 19 15 55 15 80 0 24 7 60 15 80 8 19 15 56 15 82 0 25 7 59 15 75 8 15 15 48 15 72 0 25 7 61 15 81 8 19 15 53 15 75 0 21 7 55 15 75 8 19 15 53 15 75 0 21 7 55 15 75 8 19 15 56 15 82 1 25 7 57 15 71 8 14 15 43 15 65 1 22 7 58 15 80 8 22 15 65 15 96 0 80 10 118 32 130 24 13 48 -4 48 -33 0 -11 6 -32 14 -46 8 -15 17 -34 20 -42 3 -8 10 -22 15 -30 21 -36 71 -141 71 -151 0 -6 7 -17 15 -25 8 -9 15 -24 15 -33 0 -10 7 -24 15 -31 8 -7 15 -20 15 -30 0 -10 7 -23 15 -30 8 -7 15 -20 15 -30 0 -10 7 -23 15 -30 8 -7 15 -18 15 -25 0 -7 14 -37 30 -68 17 -31 30 -63 30 -71 0 -7 7 -19 15 -26 8 -7 15 -23 15 -35 0 -12 7 -28 15 -35 8 -7 15 -20 15 -30 0 -10 7 -23 15 -30 8 -7 15 -18 15 -25 0 -12 18 -52 42 -95 4 -8 11 -22 14 -30 3 -8 10 -22 15 -30 5 -8 12 -22 15 -30 10 -25 66 -144 75 -160 5 -8 12 -22 15 -30 11 -29 37 -85 46 -100 4 -8 11 -22 14 -30 3 -8 10 -22 15 -30 5 -8 12 -22 15 -30 3 -8 12 -27 20 -42 8 -14 14 -31 14 -38 0 -6 7 -18 15 -26 8 -9 15 -24 15 -35 0 -10 4 -19 9 -19 5 0 13 -10 17 -22 15 -52 30 -58 146 -58 l108 0 0 28 c0 16 7 37 15 48 8 10 15 41 15 67 0 26 7 64 15 84 8 19 15 55 15 80 0 24 7 60 15 80 8 19 15 53 15 75 0 21 7 55 15 75 8 19 15 53 15 75 0 21 7 55 15 75 8 19 15 50 15 68 0 18 7 52 15 75 8 23 15 60 15 82 0 21 7 55 15 75 8 19 15 53 15 75 0 21 7 55 15 75 8 19 15 55 15 80 0 24 7 60 15 80 8 19 15 54 15 77 0 22 7 54 15 70 8 15 15 49 15 75 1 25 7 57 15 71 8 14 14 44 15 68 0 23 7 59 15 79 8 19 15 55 15 80 0 24 7 60 15 80 8 19 15 62 15 94 l0 59 -92 0 -93 0 -17 -31 c-10 -17 -18 -46 -18 -65 0 -19 -7 -51 -15 -71 -8 -19 -15 -53 -15 -75 0 -21 -7 -55 -15 -75 -8 -19 -15 -53 -15 -75 0 -21 -7 -55 -15 -75 -8 -19 -15 -53 -15 -75 0 -21 -7 -55 -15 -75 -8 -19 -15 -53 -15 -75 0 -21 -7 -55 -15 -75 -8 -19 -15 -53 -15 -75 0 -21 -7 -55 -15 -75 -8 -19 -15 -53 -15 -75 0 -21 -7 -55 -15 -75 -8 -19 -15 -55 -15 -80 0 -24 -7 -60 -15 -80 -8 -19 -15 -55 -15 -80 0 -24 -7 -60 -15 -80 -8 -19 -15 -55 -15 -80 0 -24 -7 -60 -15 -80 -8 -19 -15 -49 -15 -65 0 -43 -17 -68 -45 -68 -19 0 -26 7 -30 28 -4 15 -10 34 -16 42 -5 8 -12 22 -15 30 -3 8 -12 30 -20 48 -8 17 -21 49 -30 70 -10 20 -21 44 -26 52 -4 8 -11 22 -14 30 -3 8 -10 22 -15 30 -5 8 -12 22 -15 30 -11 29 -37 85 -46 100 -4 8 -11 22 -14 30 -3 8 -12 27 -20 42 -8 14 -14 33 -14 41 0 8 -7 20 -15 27 -8 7 -15 23 -15 35 0 12 -7 28 -15 35 -8 7 -15 20 -15 30 0 10 -7 23 -15 30 -8 7 -15 18 -15 25 0 8 -8 28 -17 47 -9 18 -22 45 -30 60 -7 14 -13 33 -13 41 0 8 -7 20 -15 27 -8 7 -15 20 -15 30 0 10 -7 23 -15 30 -8 7 -15 23 -15 35 0 12 -7 28 -15 35 -8 7 -15 20 -15 30 0 10 -7 23 -15 30 -8 7 -15 23 -15 35 0 12 -7 28 -15 35 -8 7 -15 20 -15 30 0 10 -7 23 -15 30 -8 7 -15 18 -15 25 0 8 -8 28 -17 47 -9 18 -22 45 -30 60 -7 14 -13 33 -13 41 0 8 -7 20 -15 27 -8 7 -15 21 -15 32 0 11 -7 26 -15 34 -8 9 -15 24 -15 33 0 10 -7 24 -15 31 -8 7 -15 20 -15 30 0 10 -7 23 -15 30 -8 7 -15 19 -15 26 0 11 -23 14 -108 14 l-108 0 -17 -35z"/> <path d="M4195 1780 c-33 -4 -72 -12 -87 -18 -36 -15 -58 -69 -58 -141 0 -31 -7 -69 -15 -85 -8 -15 -15 -38 -15 -50 0 -24 -41 -59 -80 -69 -155 -38 -160 -41 -160 -108 l0 -48 88 -3 87 -3 3 -42 c2 -24 -4 -55 -12 -72 -9 -16 -16 -47 -16 -68 0 -21 -7 -51 -15 -67 -8 -15 -15 -46 -15 -67 0 -22 -7 -56 -15 -76 -8 -19 -15 -53 -15 -75 0 -21 -7 -55 -15 -75 -8 -19 -15 -50 -15 -67 -1 -17 -7 -42 -15 -56 -8 -14 -14 -43 -15 -66 0 -22 -7 -49 -15 -60 -11 -14 -14 -49 -15 -139 0 -101 3 -127 20 -160 26 -50 74 -105 93 -105 8 0 20 -7 27 -15 18 -22 275 -22 316 0 16 8 36 15 45 15 9 0 22 7 29 15 7 8 20 15 30 15 10 0 23 7 30 15 7 8 19 15 27 15 8 0 30 12 49 26 38 29 46 73 19 108 -8 11 -15 32 -15 47 0 15 -4 30 -9 34 -5 3 -39 -15 -75 -40 -37 -25 -72 -45 -80 -45 -7 0 -19 -7 -26 -15 -7 -8 -25 -15 -41 -15 -15 0 -31 -4 -34 -10 -9 -15 -107 -11 -129 5 -51 38 -71 165 -41 250 8 22 15 54 15 70 0 17 7 41 15 55 8 14 15 43 15 65 0 22 7 51 15 65 8 14 14 44 15 68 0 23 7 59 15 79 8 19 15 53 15 75 0 21 7 55 15 75 8 19 15 56 16 82 0 25 8 71 18 101 l18 55 207 3 206 2 0 23 c0 13 7 44 16 70 9 26 14 52 12 57 -2 8 -68 12 -193 13 l-190 2 -3 55 c-2 31 3 71 12 95 8 22 17 69 19 105 3 36 8 75 12 88 8 25 11 24 -90 12z"/> <path d="M6757 1516 c-43 -7 -83 -18 -89 -24 -7 -7 -24 -12 -39 -12 -15 0 -32 -7 -39 -15 -7 -8 -20 -15 -30 -15 -10 0 -23 -7 -30 -15 -7 -8 -20 -15 -30 -15 -10 0 -23 -7 -30 -15 -7 -8 -18 -15 -26 -15 -19 0 -35 -36 -29 -62 15 -59 100 -121 120 -87 4 5 17 14 28 20 12 5 29 13 37 18 48 27 80 41 97 41 10 0 36 7 58 15 86 31 177 13 235 -45 46 -46 60 -85 60 -165 0 -75 -7 -96 -61 -180 -10 -16 -23 -39 -28 -50 -9 -21 -139 -174 -181 -214 -32 -29 -157 -143 -189 -170 -13 -12 -27 -21 -31 -21 -3 0 -19 -13 -36 -28 -27 -27 -159 -125 -288 -216 l-56 -39 0 -74 0 -73 514 0 513 0 6 57 c4 32 10 68 13 80 l6 23 -139 0 c-77 0 -228 3 -336 7 -186 6 -196 7 -201 27 -6 24 10 46 34 46 10 0 24 7 31 16 8 9 50 44 94 78 115 87 127 98 260 231 149 149 208 223 248 310 10 22 25 53 33 68 8 16 14 43 14 60 0 18 5 52 11 77 12 51 -5 163 -28 191 -7 8 -13 20 -13 25 -1 28 -116 124 -148 124 -11 0 -25 6 -31 14 -10 12 -57 20 -176 30 -27 2 -85 -1 -128 -8z"/> <path d="M8340 1520 c-14 -4 -43 -8 -66 -9 -22 -1 -49 -8 -60 -16 -10 -8 -27 -15 -37 -15 -11 0 -31 -6 -45 -14 -15 -8 -34 -17 -42 -20 -8 -4 -28 -15 -45 -26 -16 -11 -37 -23 -45 -27 -48 -22 -199 -179 -235 -245 -33 -59 -55 -105 -55 -115 0 -6 -7 -16 -15 -23 -8 -7 -15 -22 -15 -34 0 -12 -7 -31 -15 -42 -8 -10 -15 -32 -15 -47 0 -15 -7 -42 -16 -59 -13 -26 -17 -68 -18 -227 -1 -172 1 -199 17 -221 9 -13 17 -34 17 -47 0 -12 4 -24 9 -28 6 -3 20 -26 32 -50 25 -49 138 -165 162 -165 8 0 20 -7 27 -15 7 -8 22 -15 34 -15 11 0 30 -7 40 -15 29 -22 342 -21 370 0 11 8 31 15 45 15 14 0 35 7 45 15 11 8 28 15 38 15 10 0 18 4 18 9 0 5 12 13 28 19 58 21 272 232 272 268 0 4 6 15 14 23 22 26 76 132 76 151 0 10 7 23 15 30 8 7 15 27 15 44 0 18 7 41 15 52 8 10 15 37 15 60 0 22 7 63 15 90 20 65 20 223 0 271 -8 19 -15 50 -15 68 0 18 -7 38 -15 45 -8 7 -15 18 -15 25 0 38 -135 205 -166 205 -7 0 -19 6 -26 13 -45 42 -288 81 -358 57z m195 -192 c21 -9 41 -21 43 -27 2 -6 10 -11 17 -11 15 0 105 -111 105 -130 0 -6 6 -21 14 -33 13 -21 29 -120 29 -182 0 -62 -21 -207 -32 -218 -6 -6 -11 -23 -11 -37 0 -14 -7 -35 -15 -46 -8 -10 -15 -29 -15 -40 0 -12 -7 -27 -15 -34 -8 -7 -15 -20 -15 -30 0 -10 -7 -23 -15 -30 -8 -7 -15 -19 -15 -27 0 -7 -7 -16 -15 -19 -8 -4 -15 -12 -15 -20 0 -15 -121 -140 -167 -172 -18 -12 -39 -22 -46 -22 -8 0 -20 -7 -27 -15 -7 -8 -23 -15 -35 -15 -12 0 -39 -7 -58 -15 -46 -19 -118 -19 -164 0 -19 8 -46 15 -58 15 -13 0 -25 7 -29 15 -3 8 -11 15 -18 15 -24 1 -108 93 -108 118 0 5 -7 15 -15 22 -8 7 -15 23 -15 35 0 13 -7 36 -15 51 -21 40 -21 241 0 291 8 19 15 48 15 62 0 15 7 36 15 47 8 10 15 29 15 40 0 12 7 27 15 34 8 7 15 20 15 30 0 10 7 23 15 30 8 7 15 17 15 22 0 12 51 79 92 122 15 17 28 33 28 37 0 10 115 99 128 99 5 0 15 7 22 15 7 8 24 15 39 15 14 0 35 7 46 16 26 20 192 14 250 -8z"/> <path d="M2840 1465 c-19 -7 -53 -14 -75 -15 -22 0 -49 -7 -59 -15 -11 -8 -27 -15 -37 -15 -9 0 -22 -7 -29 -15 -7 -8 -19 -15 -27 -15 -30 0 -242 -179 -243 -205 0 -6 -8 -18 -17 -27 -33 -31 -52 -60 -98 -158 -20 -41 -43 -88 -51 -103 -7 -16 -14 -41 -14 -55 -1 -15 -7 -38 -15 -52 -21 -36 -21 -304 0 -353 8 -20 15 -49 15 -65 0 -16 7 -35 15 -42 8 -7 15 -23 15 -35 0 -13 3 -25 8 -27 4 -2 20 -22 36 -46 36 -52 103 -121 131 -133 11 -5 27 -13 35 -17 73 -41 80 -42 250 -42 168 0 198 5 260 41 8 5 24 14 35 19 11 6 34 19 50 30 17 11 39 24 50 29 51 22 235 229 235 264 0 8 7 20 15 27 8 7 15 20 15 30 0 10 7 23 15 30 8 7 15 23 15 35 0 12 7 28 15 35 8 7 15 23 15 37 0 13 5 34 12 46 31 57 48 312 27 412 -13 62 -64 174 -86 188 -7 4 -13 14 -13 20 0 17 -97 106 -127 118 -13 5 -23 13 -23 19 0 5 -8 10 -19 10 -10 0 -24 7 -31 15 -7 8 -26 15 -42 15 -16 0 -45 7 -65 15 -43 18 -145 18 -193 0z m211 -191 c8 -8 20 -14 25 -14 29 -1 134 -135 134 -171 0 -9 7 -30 15 -45 21 -40 21 -241 0 -291 -8 -19 -15 -48 -15 -62 0 -15 -7 -36 -15 -47 -8 -10 -15 -28 -15 -40 0 -11 -7 -29 -15 -40 -8 -10 -15 -26 -15 -35 0 -9 -7 -22 -15 -29 -8 -7 -15 -19 -15 -27 0 -35 -151 -200 -205 -224 -11 -5 -27 -13 -35 -18 -43 -24 -95 -35 -186 -39 -82 -3 -104 0 -117 12 -9 9 -20 16 -25 16 -6 0 -30 19 -54 43 -47 46 -88 115 -88 150 0 12 -7 31 -15 41 -21 28 -21 272 0 323 8 19 15 48 15 63 0 16 6 41 14 57 8 15 24 48 35 73 32 66 80 138 121 181 28 29 121 94 150 105 8 3 24 11 35 17 51 29 254 30 286 1z"/> <path d="M5505 1465 c-16 -8 -42 -14 -57 -15 -14 0 -39 -7 -55 -15 -15 -7 -49 -24 -75 -35 -27 -12 -50 -26 -54 -31 -3 -5 -12 -9 -20 -9 -9 0 -21 -6 -29 -12 -7 -7 -28 -24 -46 -38 -38 -29 -93 -83 -129 -125 -42 -51 -86 -109 -93 -125 -4 -8 -16 -28 -26 -45 -48 -74 -108 -219 -120 -290 -4 -22 -13 -50 -20 -63 -9 -17 -13 -82 -13 -223 0 -167 2 -203 16 -224 9 -13 16 -31 16 -38 0 -20 92 -117 111 -117 8 0 24 -7 35 -15 27 -21 252 -21 280 0 10 8 27 15 38 15 10 0 35 13 56 30 21 16 42 30 46 30 5 0 54 45 109 100 55 56 106 99 115 98 12 -3 16 -25 20 -113 3 -62 12 -124 20 -143 12 -27 19 -32 50 -32 20 0 45 6 56 14 11 8 36 16 55 18 l34 3 1 215 c1 179 4 220 17 247 10 18 17 51 17 75 0 24 7 56 15 72 8 15 15 47 15 70 0 22 7 54 15 70 8 15 15 47 15 70 1 22 7 52 15 66 8 14 14 44 15 68 0 23 7 59 15 79 8 19 15 54 15 77 1 22 7 52 15 66 8 14 15 43 15 65 0 22 4 57 9 78 14 59 0 67 -128 67 -79 0 -112 4 -127 15 -26 19 -216 19 -259 0z m180 -160 c22 -8 49 -15 61 -15 11 0 25 -5 32 -12 17 -17 15 -122 -3 -165 -8 -19 -15 -52 -15 -72 0 -20 -7 -49 -15 -65 -8 -15 -15 -45 -15 -65 0 -20 -7 -45 -15 -55 -8 -11 -15 -31 -15 -45 0 -14 -7 -35 -15 -45 -8 -11 -15 -30 -15 -42 0 -12 -7 -27 -15 -34 -8 -7 -15 -20 -15 -29 0 -9 -5 -22 -11 -28 -12 -12 -32 -45 -47 -78 -6 -11 -22 -33 -36 -48 -14 -15 -26 -32 -26 -37 0 -15 -193 -208 -220 -219 -14 -6 -43 -22 -65 -36 -30 -18 -55 -24 -98 -25 -56 0 -60 2 -102 45 -51 54 -57 79 -58 235 -1 115 10 207 29 245 37 72 44 88 44 102 0 8 6 27 14 41 8 15 17 34 20 42 4 8 15 29 26 45 11 17 24 40 30 53 5 12 14 22 20 22 5 0 10 6 10 13 0 35 215 224 285 251 96 37 168 43 230 21z"/> </g> </svg> 