 <svg  version="1.0" xmlns="http://www.w3.org/2000/svg"  width="900.000000pt" height="900.000000pt" viewBox="0 0 300.000000 300.000000"  preserveAspectRatio="xMidYMid meet">  <g transform="translate(0.000000,300.000000) scale(0.100000,-0.100000)" fill="#ebe6e6" stroke="none"> <path d="M560 1568 c0 -3 -20 -105 -45 -228 -25 -123 -45 -228 -45 -233 0 -4 12 -7 27 -5 26 3 27 5 62 190 20 104 38 188 41 188 3 0 14 -21 24 -48 11 -26 51 -111 89 -189 65 -135 71 -143 98 -143 16 0 29 1 29 3 0 2 20 104 45 227 25 123 45 228 45 233 0 4 -12 7 -27 5 -26 -3 -27 -6 -61 -183 -18 -99 -36 -187 -39 -195 -5 -13 -6 -13 -11 0 -3 8 -43 96 -88 195 -80 171 -85 180 -114 183 -16 2 -30 2 -30 0z"/> <path d="M1408 1489 c-11 -6 -18 -22 -18 -40 0 -25 -5 -30 -30 -35 -21 -5 -30 -12 -30 -26 0 -15 5 -19 20 -15 13 3 20 0 20 -9 0 -7 -9 -52 -20 -99 -11 -47 -20 -98 -20 -114 0 -57 64 -78 135 -44 28 13 34 21 29 37 -9 30 -12 31 -31 14 -30 -26 -62 -32 -70 -12 -5 14 21 185 34 219 2 6 25 8 52 7 45 -4 49 -2 53 22 5 25 4 26 -43 26 -53 0 -53 0 -40 48 8 27 7 32 -7 32 -9 0 -25 -5 -34 -11z"/> <path d="M1971 1420 c-39 -18 -42 -22 -30 -38 7 -9 14 -19 16 -21 1 -1 12 4 25 13 59 41 123 5 98 -55 -14 -32 -121 -136 -169 -165 -17 -10 -31 -26 -31 -36 0 -16 12 -18 125 -18 123 0 125 0 125 23 0 21 -3 22 -82 19 l-83 -2 30 22 c101 77 147 137 147 195 0 76 -79 104 -171 63z"/> <path d="M2340 1429 c-86 -34 -149 -167 -120 -253 42 -128 209 -111 283 29 24 47 29 139 9 177 -28 51 -107 73 -172 47z m110 -59 c24 -24 27 -94 6 -143 -31 -76 -121 -112 -166 -67 -25 25 -27 97 -4 146 36 76 119 109 164 64z"/> <path d="M1075 1411 c-74 -34 -115 -102 -115 -189 0 -93 63 -145 153 -128 50 9 95 50 123 111 43 92 22 180 -51 211 -44 18 -61 18 -110 -5z m105 -51 c39 -39 21 -150 -31 -196 -37 -33 -72 -37 -102 -14 -51 40 -42 137 18 197 39 39 84 44 115 13z"/> <path d="M1700 1414 c-69 -30 -113 -86 -135 -170 -25 -96 2 -154 71 -154 30 0 89 33 98 55 9 23 24 18 19 -7 -5 -31 10 -51 34 -44 15 5 19 16 20 58 1 29 13 100 26 158 14 58 24 106 23 106 0 1 -28 4 -61 8 -44 4 -70 2 -95 -10z m85 -81 c-13 -86 -57 -158 -116 -188 -24 -13 -30 -13 -43 1 -34 34 -9 130 50 191 34 36 47 43 78 43 l38 0 -7 -47z"/> </g> </svg> 